{
	"asset":{
		"generator":"Khronos glTF Blender I/O v4.3.47",
		"version":"2.0"
	},
	"scene":0,
	"scenes":[
		{
			"name":"Scene",
			"nodes":[
				0
			]
		}
	],
	"nodes":[
		{
			"mesh":0,
			"name":"MPH Court"
		}
	],
	"meshes":[
		{
			"name":"MPH Court",
			"primitives":[
				{
					"attributes":{
						"POSITION":0,
						"NORMAL":1
					},
					"indices":2
				}
			]
		}
	],
	"accessors":[
		{
			"bufferView":0,
			"componentType":5126,
			"count":153334,
			"max":[
				23.284374237060547,
				9.122666358947754,
				-9.99999883788405e-07
			],
			"min":[
				1.0000001111620804e-06,
				9.999999974752427e-07,
				-32.07953643798828
			],
			"type":"VEC3"
		},
		{
			"bufferView":1,
			"componentType":5126,
			"count":153334,
			"type":"VEC3"
		},
		{
			"bufferView":2,
			"componentType":5125,
			"count":177912,
			"type":"SCALAR"
		}
	],
	"bufferViews":[
		{
			"buffer":0,
			"byteLength":1840008,
			"byteOffset":0,
			"target":34962
		},
		{
			"buffer":0,
			"byteLength":1840008,
			"byteOffset":1840008,
			"target":34962
		},
		{
			"buffer":0,
			"byteLength":711648,
			"byteOffset":3680016,
			"target":34963
		}
	],
	"buffers":[
		{
			"byteLength":4391664,
			"uri":"model.bin"
		}
	]
}
